# xmcd
#
# Track frame offsets: 
#        150
#        13465
#        24538
#        35179
#        48981
#        59389
#        71526
#        84450
#        94819
#        108393
#        124946
#        140270
#        150505
#        162960
#        176922
#        191104
#        203166
#        215904
#        228545
#        241543
#
# Disc length: 3356 seconds
#
# Revision: 2
# Processed by: cddbd v1.5.2PL0 Copyright (c) Steve Scherf et al.
# Submitted via: ExactAudioCopy v1.0b3
#
DISCID=220d1a14
DTITLE=Various Artist - Chicago Blues: The Absolutely Essential 3-CD 
DTITLE=Collection
DYEAR=2012
DGENRE=Blues
TTITLE0=Muddy Waters - Mannish Boy
TTITLE1=Howlin' Wolf - The Red Rooster
TTITLE2=Sonny Boy Williamson - Fattening Frogs For Snakes
TTITLE3=Buddy Guy - Sit And Cry (The Blues)
TTITLE4=Walter Horton - Need My Baby
TTITLE5=Jimmy Reed - Honest I Do
TTITLE6=Jimmy Rogers - That's All Right
TTITLE7=Billy Boy Arnold - I Ain't Got You
TTITLE8=James Cotton - Cotton Crop Blues
TTITLE9=Otis Rush - I Can't Quit You Baby
TTITLE10=Willie Dixon - Pain In My Heart
TTITLE11=Billy Emerson - If Lovin' Is Believing
TTITLE12=Eddie Boyd - Five Long Years
TTITLE13=Junior Wells - Hoodoo Man
TTITLE14=Willie Mabon - I Don't Know
TTITLE15=John Brim - Be Careful What You Do
TTITLE16=Etta James - Spoonful
TTITLE17=Muddy Waters - Just Make Love To Me (I Just Want To Make Love
TTITLE17=To You)
TTITLE18=Willie Mabon - The Seventh Son
TTITLE19=Muddy Waters - I Can't Hold Out
EXTD=
EXTT0=
EXTT1=
EXTT2=
EXTT3=
EXTT4=
EXTT5=
EXTT6=
EXTT7=
EXTT8=
EXTT9=
EXTT10=
EXTT11=
EXTT12=
EXTT13=
EXTT14=
EXTT15=
EXTT16=
EXTT17=
EXTT18=
EXTT19=
PLAYORDER=
